<svg xmlns="http://www.w3.org/2000/svg" width="11.695" height="10.801" viewBox="0 0 11.695 10.801">
  <path id="diamond_1_" data-name="diamond (1)" d="M11.65,12.973,9.784,9.627a.355.355,0,0,0-.31-.182H2.223a.355.355,0,0,0-.31.182L.046,12.973a.355.355,0,0,0,.035.4l5.493,6.744.006.006.018.019,0,0,0,0,0,0,.02.017.009.007.021.015.01.007.019.01.008,0,.007,0,.022.009.014.005h0l.01,0,.036.009.015,0,.044,0h.008l.044,0,.015,0,.037-.009.009,0h0l.014-.005L6,20.212l.007,0,.007,0,.019-.01.01-.007.021-.015.009-.007.02-.017,0,0,0,0,0,0,.018-.02.005-.006,5.492-6.744A.355.355,0,0,0,11.65,12.973Zm-5.1-2.818,1.006,2.636H4.142l1.006-2.636ZM7.58,13.5,5.848,18.756,4.117,13.5Zm-4.211,0,1.54,4.673L1.1,13.5Zm4.958,0h2.266L6.788,18.175Zm2.408-.71H8.315L7.309,10.155H9.265Zm-8.3-2.636H4.388L3.381,12.791H.96Z" transform="translate(-0.001 -9.445)" fill="#08c"/>
</svg>
