<svg xmlns="http://www.w3.org/2000/svg" width="15.007" height="12.604" viewBox="0 0 15.007 12.604">
  <g id="heart_1_" data-name="heart (1)" transform="translate(0 -40.992)">
    <g id="Group_361" data-name="Group 361" transform="translate(0 40.993)">
      <path id="Path_404" data-name="Path 404" d="M13.764,42.157a4.345,4.345,0,0,0-5.921,0l-.339.322-.339-.322a4.346,4.346,0,0,0-5.921,0,3.883,3.883,0,0,0,0,5.7l5.9,5.6a.526.526,0,0,0,.725,0l5.9-5.6a3.883,3.883,0,0,0,0-5.7Zm-.726,4.932L7.5,52.344,1.969,47.089a2.83,2.83,0,0,1,0-4.169,3.279,3.279,0,0,1,4.47,0l.7.667a.526.526,0,0,0,.725,0l.7-.667a3.28,3.28,0,0,1,4.47,0,2.83,2.83,0,0,1,0,4.169Z" transform="translate(0 -40.993)" fill="#fff"/>
    </g>
  </g>
</svg>
