<svg xmlns="http://www.w3.org/2000/svg" width="14.503" height="13.834" viewBox="0 0 14.503 13.834">
  <g id="vip" transform="translate(0 -11.806)">
    <g id="Group_70" data-name="Group 70" transform="translate(0 11.806)">
      <g id="Group_69" data-name="Group 69" transform="translate(0 0)">
        <path id="Path_39" data-name="Path 39" d="M14.483,17.06a.418.418,0,0,0-.272-.27l-4.114-1.3-2.5-3.512a.418.418,0,0,0-.681,0l-2.5,3.512L.293,16.79a.418.418,0,0,0-.211.648L2.648,20.9,2.61,25.218a.418.418,0,0,0,.551.4l4.09-1.369,4.09,1.369a.418.418,0,0,0,.551-.4L11.855,20.9l2.566-3.467A.418.418,0,0,0,14.483,17.06ZM11.1,20.52a.419.419,0,0,0-.082.253l.034,3.867L7.384,23.411a.418.418,0,0,0-.266,0L3.452,24.639l.034-3.867A.418.418,0,0,0,3.4,20.52L1.1,17.412l3.688-1.162a.418.418,0,0,0,.215-.156l2.245-3.148L9.5,16.093a.418.418,0,0,0,.215.156L13.4,17.412Z" transform="translate(0 -11.806)" fill="#ffb300"/>
      </g>
    </g>
    <g id="Group_72" data-name="Group 72" transform="translate(6.833 17.747)">
      <g id="Group_71" data-name="Group 71">
        <path id="Path_40" data-name="Path 40" d="M241.649,221.538a.418.418,0,0,0-.418.418v2.231a.418.418,0,1,0,.837,0v-2.231A.418.418,0,0,0,241.649,221.538Z" transform="translate(-241.231 -221.538)" fill="#ffb300"/>
      </g>
    </g>
    <g id="Group_74" data-name="Group 74" transform="translate(8.228 17.747)">
      <g id="Group_73" data-name="Group 73">
        <path id="Path_41" data-name="Path 41" d="M291.995,221.538h-1.116a.418.418,0,0,0-.418.418v2.231a.418.418,0,1,0,.837,0v-.7h.7a.976.976,0,1,0,0-1.952Zm0,1.116h-.7v-.279h.7a.139.139,0,0,1,0,.279Z" transform="translate(-290.461 -221.538)" fill="#ffb300"/>
      </g>
    </g>
    <g id="Group_76" data-name="Group 76" transform="translate(3.765 17.747)">
      <g id="Group_75" data-name="Group 75">
        <path id="Path_42" data-name="Path 42" d="M135.157,221.56a.418.418,0,0,0-.539.245l-.445,1.187-.445-1.187a.418.418,0,0,0-.783.294l.837,2.231a.418.418,0,0,0,.783,0l.837-2.231A.418.418,0,0,0,135.157,221.56Z" transform="translate(-132.918 -221.533)" fill="#ffb300"/>
      </g>
    </g>
  </g>
</svg>
